<?xml version="1.0" standalone="no"?>
<!DOCTYPE svg PUBLIC "-//W3C//DTD SVG 20010904//EN"
 "http://www.w3.org/TR/2001/REC-SVG-20010904/DTD/svg10.dtd">
<svg version="1.0" xmlns="http://www.w3.org/2000/svg"
 width="352.000000pt" height="352.000000pt" viewBox="0 0 352.000000 352.000000"
 preserveAspectRatio="xMidYMid meet">
<metadata>
Created by potrace 1.11, written by Peter Selinger 2001-2013
</metadata>
<g transform="translate(0.000000,352.000000) scale(0.100000,-0.100000)"
fill="#000000" stroke="none">
<path d="M562 2167 c-215 -215 -392 -395 -392 -400 0 -4 178 -7 395 -7 l395 0
0 -400 0 -400 803 0 802 0 400 400 400 400 -400 0 -400 0 -400 400 -400 400
-405 0 -405 0 -393 -393z m1198 -802 c0 -217 -1 -395 -3 -395 -1 0 -180 178
-397 395 l-395 395 398 0 397 0 0 -395z"/>
</g>
</svg>
